<svg xmlns="http://www.w3.org/2000/svg" width="209.46" height="35" viewBox="0 0 209.46 35"><rect class="svg__rect" x="0" y="0" width="115.31" height="35" fill="#EA4560"/><rect class="svg__rect" x="113.31" y="0" width="96.15" height="35" fill="#C13B3A"/><path class="svg__text" d="M15.69 22L14.22 22L14.22 13.47L16.14 13.47L18.60 20.01L21.06 13.47L22.97 13.47L22.97 22L21.49 22L21.49 19.19L21.64 15.43L19.12 22L18.06 22L15.55 15.43L15.69 19.19L15.69 22ZM28.49 22L26.95 22L30.17 13.47L31.50 13.47L34.73 22L33.18 22L32.49 20.01L29.18 20.01L28.49 22ZM30.83 15.28L29.60 18.82L32.07 18.82L30.83 15.28ZM41.14 22L38.69 22L38.69 13.47L41.21 13.47Q42.34 13.47 43.21 13.97Q44.09 14.48 44.57 15.40Q45.05 16.33 45.05 17.52L45.05 17.52L45.05 17.95Q45.05 19.16 44.57 20.08Q44.08 21.00 43.19 21.50Q42.30 22 41.14 22L41.14 22ZM40.17 14.66L40.17 20.82L41.14 20.82Q42.30 20.82 42.93 20.09Q43.55 19.36 43.56 17.99L43.56 17.99L43.56 17.52Q43.56 16.13 42.96 15.40Q42.35 14.66 41.21 14.66L41.21 14.66L40.17 14.66ZM55.09 22L49.51 22L49.51 13.47L55.05 13.47L55.05 14.66L51.00 14.66L51.00 17.02L54.50 17.02L54.50 18.19L51.00 18.19L51.00 20.82L55.09 20.82L55.09 22ZM66.65 22L64.68 13.47L66.15 13.47L67.47 19.88L69.10 13.47L70.34 13.47L71.96 19.89L73.27 13.47L74.74 13.47L72.77 22L71.35 22L69.73 15.77L68.07 22L66.65 22ZM80.38 22L78.90 22L78.90 13.47L80.38 13.47L80.38 22ZM86.87 14.66L84.23 14.66L84.23 13.47L91.00 13.47L91.00 14.66L88.34 14.66L88.34 22L86.87 22L86.87 14.66ZM96.24 22L94.75 22L94.75 13.47L96.24 13.47L96.24 17.02L100.05 17.02L100.05 13.47L101.53 13.47L101.53 22L100.05 22L100.05 18.21L96.24 18.21L96.24 22Z" fill="#FFFFFF"/><path class="svg__text" d="M129.88 22L127.50 22L127.50 13.60L131.34 13.60Q132.48 13.60 133.32 13.98Q134.16 14.35 134.62 15.06Q135.07 15.76 135.07 16.71L135.07 16.71Q135.07 17.66 134.62 18.35Q134.16 19.05 133.32 19.42Q132.48 19.80 131.34 19.80L131.34 19.80L129.88 19.80L129.88 22ZM129.88 15.47L129.88 17.93L131.20 17.93Q131.93 17.93 132.30 17.61Q132.67 17.29 132.67 16.71L132.67 16.71Q132.67 16.12 132.30 15.80Q131.93 15.47 131.20 15.47L131.20 15.47L129.88 15.47ZM142.20 22L139.83 22L139.83 13.60L142.20 13.60L142.20 16.76L145.45 16.76L145.45 13.60L147.82 13.60L147.82 22L145.45 22L145.45 18.72L142.20 18.72L142.20 22ZM155.36 22L152.98 22L152.98 13.60L156.82 13.60Q157.96 13.60 158.80 13.98Q159.64 14.35 160.10 15.06Q160.56 15.76 160.56 16.71L160.56 16.71Q160.56 17.66 160.10 18.35Q159.64 19.05 158.80 19.42Q157.96 19.80 156.82 19.80L156.82 19.80L155.36 19.80L155.36 22ZM155.36 15.47L155.36 17.93L156.68 17.93Q157.41 17.93 157.78 17.61Q158.15 17.29 158.15 16.71L158.15 16.71Q158.15 16.12 157.78 15.80Q157.41 15.47 156.68 15.47L156.68 15.47L155.36 15.47ZM171.80 19.53L171.80 19.53Q171.80 18.89 172.11 18.40Q172.43 17.91 173.00 17.57L173.00 17.57Q172.57 17.27 172.34 16.84Q172.11 16.41 172.11 15.88L172.11 15.88Q172.11 15.15 172.52 14.59Q172.94 14.03 173.70 13.73Q174.47 13.43 175.45 13.43L175.45 13.43Q176.44 13.43 177.20 13.73Q177.96 14.03 178.38 14.59Q178.80 15.15 178.80 15.88L178.80 15.88Q178.80 16.41 178.57 16.84Q178.33 17.27 177.90 17.57L177.90 17.57Q178.47 17.91 178.79 18.40Q179.10 18.89 179.10 19.53L179.10 19.53Q179.10 20.32 178.64 20.92Q178.19 21.52 177.36 21.84Q176.53 22.17 175.45 22.17L175.45 22.17Q174.37 22.17 173.54 21.84Q172.71 21.52 172.26 20.92Q171.80 20.32 171.80 19.53ZM174.19 19.46L174.19 19.46Q174.19 19.94 174.53 20.22Q174.88 20.50 175.45 20.50L175.45 20.50Q176.03 20.50 176.37 20.22Q176.71 19.94 176.71 19.46L176.71 19.46Q176.71 18.98 176.37 18.70Q176.03 18.41 175.45 18.41L175.45 18.41Q174.88 18.41 174.53 18.70Q174.19 18.98 174.19 19.46ZM174.45 15.99L174.45 15.99Q174.45 16.40 174.72 16.63Q174.99 16.86 175.45 16.86L175.45 16.86Q175.91 16.86 176.18 16.63Q176.46 16.40 176.46 15.99L176.46 15.99Q176.46 15.57 176.18 15.33Q175.91 15.10 175.45 15.10L175.45 15.10Q175.01 15.10 174.73 15.33Q174.45 15.57 174.45 15.99ZM183.28 20.75L183.28 20.75Q183.28 20.15 183.67 19.78Q184.06 19.41 184.65 19.41L184.65 19.41Q185.25 19.41 185.63 19.78Q186.02 20.15 186.02 20.75L186.02 20.75Q186.02 21.34 185.63 21.72Q185.24 22.11 184.65 22.11L184.65 22.11Q184.07 22.11 183.67 21.72Q183.28 21.34 183.28 20.75ZM190.25 17.80L190.25 17.80Q190.25 16.45 190.72 15.46Q191.19 14.46 192.03 13.95Q192.87 13.43 193.95 13.43L193.95 13.43Q195.02 13.43 195.86 13.95Q196.70 14.46 197.17 15.46Q197.65 16.45 197.65 17.80L197.65 17.80Q197.65 19.15 197.17 20.15Q196.70 21.14 195.86 21.65Q195.02 22.17 193.95 22.17L193.95 22.17Q192.87 22.17 192.03 21.65Q191.19 21.14 190.72 20.15Q190.25 19.16 190.25 17.80ZM192.63 17.80L192.63 17.80Q192.63 19.06 192.99 19.64Q193.34 20.22 193.95 20.22L193.95 20.22Q194.55 20.22 194.91 19.64Q195.26 19.06 195.26 17.80L195.26 17.80Q195.26 16.54 194.91 15.96Q194.55 15.38 193.95 15.38L193.95 15.38Q193.34 15.38 192.99 15.96Q192.63 16.54 192.63 17.80Z" fill="#FFFFFF" x="126.31"/></svg>